<?xml version="1.0" encoding="UTF-8" standalone="no"?>
<!DOCTYPE svg PUBLIC "-//W3C//DTD SVG 1.1//EN" "http://www.w3.org/Graphics/SVG/1.1/DTD/svg11.dtd">
<svg width="100%" height="100%" viewBox="0 0 1772 638" version="1.1" xmlns="http://www.w3.org/2000/svg" xmlns:xlink="http://www.w3.org/1999/xlink" xml:space="preserve" style="fill-rule:evenodd;clip-rule:evenodd;stroke-miterlimit:10;">
    <g id="BSERVER" transform="matrix(4.16667,0,0,4.16667,0,0)">
        <path d="M0,123.395L425.167,123.395" style="fill:none;stroke:rgb(187,189,192);stroke-width:1.42px;"/>
        <path d="M98.104,43.796C94.98,44.758 92.429,47.65 91.849,50.641L85.349,52.644C86.173,49.173 84.224,46.404 80.863,46.399L77.542,46.393L79.498,39.519C82.845,38.863 86.054,35.953 87.048,32.456C88.183,28.471 86.01,25.236 82.199,25.23C78.385,25.223 74.376,28.448 73.242,32.432C72.248,35.929 73.8,38.847 76.771,39.514L74.816,46.388L71.494,46.383C68.058,46.377 64.447,49.26 63.382,52.84L59.649,51.43C61.508,47.317 60.397,43.189 56.863,41.854C52.993,40.392 47.695,42.834 45.03,47.309C42.363,51.784 43.34,56.597 47.21,58.059C50.743,59.394 55.46,57.468 58.286,53.719L62.658,55.371L60.567,62.723C59.994,64.736 60.353,66.536 61.375,67.742L57.428,71.767C54.9,70.433 51.146,71.333 48.409,74.121C45.252,77.341 44.652,81.854 47.07,84.201C49.487,86.548 54.007,85.84 57.165,82.621C59.901,79.832 60.713,76.075 59.31,73.594L63.682,69.137C64.085,69.235 64.518,69.291 64.976,69.292L74.346,69.308C74.932,69.309 75.522,69.22 76.104,69.064L77.319,72.026C73.446,75.035 71.536,79.982 73.025,83.612C74.65,87.573 79.699,88.459 84.301,85.591C88.905,82.724 91.319,77.188 89.694,73.228C88.205,69.597 83.84,68.56 79.578,70.619L78.498,67.987C80.355,66.793 81.879,64.9 82.488,62.76L84.51,55.647L91.922,53.363C92.647,55.953 95.31,57.237 98.434,56.275C102.046,55.162 104.903,51.465 104.812,48.02C104.721,44.574 101.718,42.683 98.104,43.796" style="fill:rgb(188,190,190);fill-rule:nonzero;"/>
        <path d="M66.97,22.769C66.456,22.74 65.94,22.721 65.42,22.721C50.675,22.721 38.656,34.696 38.056,49.697C41.293,35.573 52.757,24.72 66.97,22.769" style="fill:white;fill-rule:nonzero;"/>
        <path d="M135.631,79.693L139.075,79.693L145.8,113.485L145.909,113.485L152.473,79.693L156.454,79.693L163.019,113.485L163.128,113.485L169.853,79.693L173.297,79.693L165.172,118.112L160.867,118.112L154.518,84.321L154.41,84.321L148.061,118.112L143.756,118.112L135.631,79.693Z" style="fill:rgb(188,190,190);fill-rule:nonzero;"/>
        <path d="M190.459,101.271C190.297,94.168 188.306,91.585 184.379,91.585C180.343,91.585 178.353,94.168 178.299,101.271L190.459,101.271ZM193.634,108.643C193.149,114.723 189.813,118.759 184.433,118.759C178.406,118.759 174.855,114.561 174.855,103.8C174.855,93.845 178.406,88.895 184.702,88.895C190.997,88.895 193.903,93.253 193.903,102.777L193.903,103.961L178.299,103.961L178.299,105.307C178.299,113.539 181.204,116.068 184.379,116.068C187.876,116.068 189.867,113.593 190.405,108.643L193.634,108.643Z" style="fill:rgb(188,190,190);fill-rule:nonzero;"/>
        <path d="M212.033,101.97L211.925,101.97C211.549,102.993 209.773,103.477 208.481,103.854L205.791,104.553C202.563,105.414 200.895,107.029 200.895,110.472C200.895,113.862 202.616,116.068 205.415,116.068C209.342,116.068 212.033,113.162 212.033,107.997L212.033,101.97ZM198.366,98.042C198.366,92.177 201.11,88.895 207.19,88.895C213.055,88.895 215.262,91.962 215.262,96.482L215.262,113.378C215.262,114.938 215.8,115.745 216.929,115.745L217.844,115.745L217.844,118.113C217.252,118.328 216.714,118.436 216.338,118.436C213.809,118.436 212.194,117.844 212.194,114.884L212.194,113.916L212.087,113.916C210.795,117.682 207.943,118.759 204.715,118.759C199.711,118.759 197.451,115.638 197.451,110.687C197.451,106.867 199.119,103.907 203.208,102.778L209.288,101.055C211.602,100.464 212.033,99.819 212.033,96.536C212.033,92.877 210.042,91.585 207.082,91.585C203.208,91.585 201.594,93.899 201.594,98.042L198.366,98.042Z" style="fill:rgb(188,190,190);fill-rule:nonzero;"/>
        <path d="M223.277,92.231L219.348,92.231L219.348,89.541L223.277,89.541L223.277,81.631L226.505,81.631L226.505,89.541L231.563,89.541L231.563,92.231L226.505,92.231L226.505,112.732C226.505,115.046 227.473,115.745 229.572,115.745C230.164,115.745 230.863,115.638 231.563,115.422L231.563,118.113C231.186,118.328 230.433,118.436 229.303,118.436C224.945,118.436 223.277,117.252 223.277,113.431L223.277,92.231Z" style="fill:rgb(188,190,190);fill-rule:nonzero;"/>
        <path d="M235.06,79.693L238.288,79.693L238.288,93.522L238.395,93.522C239.203,90.563 241.947,88.894 245.391,88.894C249.749,88.894 252.709,91.154 252.709,96.535L252.709,118.112L249.48,118.112L249.48,97.45C249.48,93.522 247.866,91.585 244.584,91.585C240.764,91.585 238.288,94.437 238.288,98.903L238.288,118.112L235.06,118.112L235.06,79.693Z" style="fill:rgb(188,190,190);fill-rule:nonzero;"/>
        <path d="M273.369,101.271C273.208,94.168 271.217,91.585 267.289,91.585C263.253,91.585 261.263,94.168 261.209,101.271L273.369,101.271ZM276.544,108.643C276.058,114.723 272.723,118.759 267.343,118.759C261.316,118.759 257.765,114.561 257.765,103.8C257.765,93.845 261.316,88.895 267.611,88.895C273.907,88.895 276.812,93.253 276.812,102.777L276.812,103.961L261.209,103.961L261.209,105.307C261.209,113.539 264.114,116.068 267.289,116.068C270.786,116.068 272.777,113.593 273.315,108.643L276.544,108.643Z" style="fill:rgb(188,190,190);fill-rule:nonzero;"/>
        <path d="M281.868,89.541L285.097,89.541L285.097,94.007L285.204,94.007C286.441,90.778 289.024,88.895 292.415,88.895C292.791,88.895 293.167,88.949 293.545,89.057L293.545,92.285C293.007,92.177 292.469,92.124 291.983,92.124C288.379,92.124 285.097,94.707 285.097,100.249L285.097,118.113L281.868,118.113L281.868,89.541Z" style="fill:rgb(188,190,190);fill-rule:nonzero;"/>
        <path d="M297.417,79.693L305.865,79.693L305.865,94.437L321.416,94.437L321.416,79.693L329.863,79.693L329.863,118.112L321.416,118.112L321.416,101.54L305.865,101.54L305.865,118.112L297.417,118.112L297.417,79.693Z" style="fill:rgb(188,190,190);fill-rule:nonzero;"/>
        <path d="M362.576,118.113L355.312,118.113L355.312,114.238L355.15,114.238C353.213,117.413 349.878,118.866 346.649,118.866C338.523,118.866 336.479,114.292 336.479,107.405L336.479,90.294L344.12,90.294L344.12,106.006C344.12,110.579 345.411,112.84 349.016,112.84C353.159,112.84 354.934,110.526 354.934,104.876L354.934,90.294L362.576,90.294L362.576,118.113Z" style="fill:rgb(188,190,190);fill-rule:nonzero;"/>
        <path d="M382.267,95.298C377.747,95.298 375.756,99.495 375.756,104.23C375.756,108.858 377.747,113.109 382.267,113.109C386.787,113.109 388.778,108.858 388.778,104.23C388.778,99.495 386.787,95.298 382.267,95.298M368.384,79.694L376.026,79.694L376.026,93.684L376.133,93.684C378.017,90.832 381.46,89.541 384.904,89.541C390.446,89.541 396.418,94.007 396.418,104.176C396.418,114.346 390.446,118.866 384.904,118.866C380.814,118.866 377.425,117.629 375.756,114.561L375.648,114.561L375.648,118.113L368.384,118.113L368.384,79.694Z" style="fill:rgb(188,190,190);fill-rule:nonzero;"/>
        <path d="M127.852,66.304L123.664,66.304L123.664,52.468L127.329,52.468C130.968,52.468 133.585,53.016 135.182,54.113C136.777,55.21 137.575,57.03 137.575,59.573C137.575,64.06 134.333,66.304 127.852,66.304ZM123.664,32.124L126.581,32.124C131.517,32.124 133.985,34.268 133.985,38.556C133.985,42.894 131.467,45.063 126.431,45.063L123.664,45.063L123.664,32.124ZM137.5,47.531C139.494,46.385 140.903,45.038 141.726,43.492C142.549,41.947 142.96,39.928 142.96,37.434C142.96,35.34 142.56,33.395 141.764,31.6C140.965,29.805 139.868,28.36 138.473,27.262C135.979,25.269 131.915,24.271 126.281,24.271L113.941,24.271L113.941,74.158L130.769,74.158C136.054,74.158 140.18,72.911 143.147,70.418C146.113,67.925 147.598,64.46 147.598,60.022C147.598,56.632 146.748,53.877 145.054,51.757C143.358,49.638 140.84,48.23 137.5,47.531Z" style="fill:white;fill-rule:nonzero;stroke:rgb(187,189,192);stroke-width:1px;"/>
        <path d="M184.731,49.744C183.609,48.55 182.138,47.454 180.318,46.459C178.498,45.463 176.192,44.468 173.4,43.472C170.508,42.377 168.526,41.394 167.454,40.522C166.381,39.652 165.846,38.544 165.846,37.2C165.846,35.607 166.531,34.287 167.903,33.243C169.273,32.198 171.006,31.675 173.101,31.675C174.546,31.675 175.893,31.987 177.14,32.61C178.385,33.234 179.657,34.268 180.954,35.713L186.04,29.032C181.801,25.309 176.916,23.447 171.38,23.447C169.186,23.447 167.142,23.809 165.247,24.532C163.352,25.255 161.707,26.252 160.311,27.523C158.915,28.795 157.817,30.304 157.02,32.048C156.222,33.795 155.823,35.689 155.823,37.733C155.823,39.429 156.035,40.949 156.46,42.295C156.882,43.641 157.581,44.851 158.554,45.923C159.525,46.995 160.785,47.968 162.33,48.84C163.876,49.713 165.795,50.573 168.089,51.42C169.984,52.119 171.455,52.692 172.502,53.14C173.549,53.589 174.322,53.963 174.821,54.262C176.766,55.509 177.738,57.229 177.738,59.423C177.738,61.468 177.027,63.151 175.606,64.472C174.185,65.793 172.377,66.453 170.184,66.453C167.839,66.453 165.771,65.892 163.976,64.77C162.181,63.649 160.71,61.992 159.563,59.797L153.281,65.855C155.524,69.146 158.03,71.552 160.797,73.072C163.564,74.593 166.818,75.354 170.558,75.354C173.101,75.354 175.419,74.955 177.514,74.159C179.608,73.363 181.415,72.244 182.936,70.799C184.456,69.356 185.64,67.627 186.489,65.611C187.336,63.595 187.76,61.391 187.76,59.002C187.76,57.011 187.536,55.269 187.087,53.776C186.638,52.283 185.853,50.938 184.731,49.744" style="fill:white;fill-rule:nonzero;"/>
        <path d="M184.731,49.744C183.609,48.55 182.138,47.454 180.318,46.459C178.498,45.463 176.192,44.468 173.4,43.472C170.508,42.377 168.526,41.394 167.454,40.522C166.381,39.652 165.846,38.544 165.846,37.2C165.846,35.607 166.531,34.287 167.903,33.243C169.273,32.198 171.006,31.675 173.101,31.675C174.546,31.675 175.893,31.987 177.14,32.61C178.385,33.234 179.657,34.268 180.954,35.713L186.04,29.032C181.801,25.309 176.916,23.447 171.38,23.447C169.186,23.447 167.142,23.809 165.247,24.532C163.352,25.255 161.707,26.252 160.311,27.523C158.915,28.795 157.817,30.304 157.02,32.048C156.222,33.795 155.823,35.689 155.823,37.733C155.823,39.429 156.035,40.949 156.46,42.295C156.882,43.641 157.581,44.851 158.554,45.923C159.525,46.995 160.785,47.968 162.33,48.84C163.876,49.713 165.795,50.573 168.089,51.42C169.984,52.119 171.455,52.692 172.502,53.14C173.549,53.589 174.322,53.963 174.821,54.262C176.766,55.509 177.738,57.229 177.738,59.423C177.738,61.468 177.027,63.151 175.606,64.472C174.185,65.793 172.377,66.453 170.184,66.453C167.839,66.453 165.771,65.892 163.976,64.77C162.181,63.649 160.71,61.992 159.563,59.797L153.281,65.855C155.524,69.146 158.03,71.552 160.797,73.072C163.564,74.593 166.818,75.354 170.558,75.354C173.101,75.354 175.419,74.955 177.514,74.159C179.608,73.363 181.415,72.244 182.936,70.799C184.456,69.356 185.64,67.627 186.489,65.611C187.336,63.595 187.76,61.391 187.76,59.002C187.76,57.011 187.536,55.269 187.087,53.776C186.638,52.283 185.853,50.938 184.731,49.744Z" style="fill:none;stroke:rgb(187,189,192);stroke-width:1px;"/>
        <path d="M196.362,74.157L223.961,74.157L223.961,65.705L206.085,65.705L206.085,52.243L223.286,52.243L223.286,43.791L206.085,43.791L206.085,32.722L223.961,32.722L223.961,24.27L196.362,24.27L196.362,74.157Z" style="fill:white;fill-rule:nonzero;stroke:rgb(187,189,192);stroke-width:1px;"/>
        <path d="M292.389,57.777L279.076,24.27L268.456,24.27L289.621,75.428L294.858,75.428L316.399,24.27L305.852,24.27L292.389,57.777Z" style="fill:white;fill-rule:nonzero;stroke:rgb(187,189,192);stroke-width:1px;"/>
        <path d="M322.002,74.157L349.601,74.157L349.601,65.705L331.726,65.705L331.726,52.243L348.928,52.243L348.928,43.791L331.726,43.791L331.726,32.722L349.601,32.722L349.601,24.27L322.002,24.27L322.002,74.157Z" style="fill:white;fill-rule:nonzero;stroke:rgb(187,189,192);stroke-width:1px;"/>
        <path d="M371.591,47.232L368.749,47.232L368.749,32.124L371.74,32.124C374.78,32.124 377.1,32.748 378.695,33.994C380.291,35.241 381.089,37.086 381.089,39.528C381.089,44.665 377.922,47.232 371.591,47.232ZM379.743,53.141C383.433,52.393 386.25,50.811 388.195,48.391C390.139,45.974 391.112,42.845 391.112,39.005C391.112,34.318 389.578,30.691 386.512,28.123C383.445,25.555 379.094,24.271 373.461,24.271L359.025,24.271L359.025,74.158L368.749,74.158L368.749,54.113L370.02,54.113L383.483,74.158L395.45,74.158L379.743,53.141Z" style="fill:white;fill-rule:nonzero;stroke:rgb(187,189,192);stroke-width:1px;"/>
        <path d="M245.673,47.232L242.831,47.232L242.831,32.124L245.822,32.124C248.863,32.124 251.181,32.748 252.778,33.994C254.373,35.241 255.172,37.086 255.172,39.528C255.172,44.665 252.005,47.232 245.673,47.232M262.277,48.391C264.22,45.974 265.193,42.845 265.193,39.005C265.193,34.318 263.661,30.691 260.593,28.123C257.527,25.555 253.176,24.271 247.543,24.271L233.107,24.271L233.107,74.158L242.831,74.158L242.831,54.113L244.102,54.113L257.565,74.158L269.532,74.158L253.825,53.141C257.514,52.393 260.332,50.811 262.277,48.391" style="fill:white;fill-rule:nonzero;"/>
        <path d="M245.673,47.232L242.831,47.232L242.831,32.124L245.822,32.124C248.863,32.124 251.181,32.748 252.778,33.994C254.373,35.241 255.172,37.086 255.172,39.528C255.172,44.665 252.005,47.232 245.673,47.232ZM262.277,48.391C264.22,45.974 265.193,42.845 265.193,39.005C265.193,34.318 263.661,30.691 260.593,28.123C257.527,25.555 253.176,24.271 247.543,24.271L233.107,24.271L233.107,74.158L242.831,74.158L242.831,54.113L244.102,54.113L257.565,74.158L269.532,74.158L253.825,53.141C257.514,52.393 260.332,50.811 262.277,48.391Z" style="fill:none;stroke:rgb(187,189,192);stroke-width:1px;"/>
        <path d="M65.115,81.665C47.567,81.665 33.29,67.389 33.29,49.841C33.29,32.293 47.567,18.017 65.115,18.017C82.663,18.017 96.939,32.293 96.939,49.841C96.939,67.389 82.663,81.665 65.115,81.665M65.115,8.811C42.49,8.811 24.084,27.217 24.084,49.841C24.084,72.465 42.49,90.872 65.115,90.872C87.739,90.872 106.146,72.465 106.146,49.841C106.146,27.217 87.739,8.811 65.115,8.811" style="fill:white;fill-rule:nonzero;"/>
        <path d="M65.115,81.665C47.567,81.665 33.29,67.389 33.29,49.841C33.29,32.293 47.567,18.017 65.115,18.017C82.663,18.017 96.939,32.293 96.939,49.841C96.939,67.389 82.663,81.665 65.115,81.665ZM65.115,8.811C42.49,8.811 24.084,27.217 24.084,49.841C24.084,72.465 42.49,90.872 65.115,90.872C87.739,90.872 106.146,72.465 106.146,49.841C106.146,27.217 87.739,8.811 65.115,8.811Z" style="fill:none;stroke:rgb(187,189,192);stroke-width:1px;"/>
        <path d="M91.521,81.948L128.954,133.286L128.5,140.982L120.055,146.311L113.085,143.299L82.633,87.556L91.521,81.948Z" style="fill:rgb(187,189,192);fill-rule:nonzero;"/>
        <path d="M87.56,85.583L91.25,83.207L126.249,131.451C126.249,131.451 125.371,130.095 126.919,132.376C128.468,134.657 113.925,142.545 113.925,142.545L113.666,141.971C113.666,141.971 119.206,138.769 120.159,138.033C121.111,137.297 118.202,133.306 118.202,133.306L87.56,85.583Z" style="fill:white;fill-rule:nonzero;"/>
    </g>
</svg>
